<svg viewBox="0 0 72 62" xmlns="http://www.w3.org/2000/svg">
  <g fill="#222" fill-rule="nonzero">
    <path d="M7 2v48.869565h58V2H7zm60-2v52.869565H5V0h62z"/>
    <path d="M24.565217 51.869565h2V61h-2zM45.434782 51.869565h2V61h-2z"/>
    <path d="M19.043478 62v-2h33.913044v2zM66 44.347826v2H6v-2z"/>
    <g>
      <path d="M16.130435 13.73913v24.086957h39.73913V13.73913h-39.73913zm41.73913-2v28.086957h-43.73913V11.73913h43.73913z"/>
      <path d="M29.173913 8.521739v3.217391h13.652174V8.52174H29.173913zm15.652174-2v7.217391H27.173913V6.52174h17.652174zM25.979431 26.086956h7.411874v2h-8.240301L14.423328 17.359281l1.414214-1.414214zM56.162459 15.945067l1.414213 1.414214-10.727676 10.727675h-8.2403v-2h7.411873z"/>
      <path d="M37.608696 25.782609c0-.882498-.726198-1.608696-1.608696-1.608696-.882498 0-1.608695.726198-1.608695 1.608696v4.21739h3.21739v-4.21739zm-5.217391 6.21739v-6.21739c0-1.987068 1.621628-3.608696 3.608695-3.608696 1.987068 0 3.608696 1.621628 3.608696 3.608696v6.21739h-7.217391z"/>
    </g>
  </g>
</svg>
