<svg viewBox="0 0 72 64" xmlns="http://www.w3.org/2000/svg">
  <g fill="#222" fill-rule="nonzero">
    <path d="M41.464286 2.321429v58.785714H54V2.321429H41.464286zM56 .321429v62.785714H39.464286V.321429H56z"/>
    <path d="M40.464286 53.857143v-2h6.607143v2zM40.464286 43.285714v-2H45.75v2zM40.464286 32.714286v-2h6.607143v2zM40.464286 22.142857v-2H45.75v2zM40.464286 11.571429v-2h6.607143v2zM19.37082 14.839426c.340665 1.476216 1.20068 2.68045 2.428759 3.321288h.081756l.169788.063671c1.755254.65822 3.649937.199829 4.659606-1.11247.281536-.380074.486444-.775927.62224-1.188188.425935-1.293098.173304-2.739506-.533836-4.17601-.165556-.336315-.343006-.643457-.519347-.913342-.10241-.156735-.178234-.26193-.215567-.30972-1.89044-2.430567-2.401925-4.90353-2.08549-7.247314-4.346287 3.201016-5.45404 7.15899-4.60791 11.562085zM26.024518.597804c.268708.268708.375482.619538.375482.98791v.162278l-.051317.15395c-.779054 2.337164-.6663 4.874137 1.292913 7.393128.249973.319966.602418.859375.95191 1.569341.916728 1.86227 1.256839 3.809526.639063 5.685029-.202498.614765-.506108 1.201296-.92566 1.767414-1.541462 2.003902-4.278505 2.703792-6.780806 1.84386h-.177883l-.199421-.09204c-1.920544-.886405-3.236386-2.654568-3.734377-4.81554C16.317512 9.5492 18.089855 4.34101 24.561883.499007c.43427-.323679 1.042948-.32089 1.462635.098796z"/>
    <path d="M27.703571 33.696429c0-9.923617-1.528922-13.271429-4.285714-13.271429s-4.285714 3.347812-4.285714 13.271429c0 5.814818.588376 12.861753 1.53852 18.447945.919286 5.404766 2.207746 8.962769 2.747194 8.962769.539448 0 1.827909-3.558003 2.747194-8.96277.950144-5.58619 1.53852-12.633126 1.53852-18.447944zm2 0c0 5.926582-.597742 13.085696-1.566837 18.783304-1.161467 6.828628-2.53712 10.62741-4.718877 10.62741-2.181756 0-3.55741-3.798782-4.718877-10.62741-.969095-5.697608-1.566837-12.856722-1.566837-18.783304 0-10.900276 1.996275-15.271429 6.285714-15.271429 4.28944 0 6.285714 4.371153 6.285714 15.271429z"/>
    <path d="M18.396429 27.428571v-2H28.175v2z"/>
  </g>
</svg>
