<svg viewBox="0 0 72 63" xmlns="http://www.w3.org/2000/svg">
  <g fill="#222" fill-rule="nonzero">
    <path d="M46.838132 22.490306l2.164121 8.223662 6.059541-6.05954-8.223662-2.164122zm12.100074 1.116137L47.95427 34.59038l-3.922835-14.906772 14.906772 3.922835z"/>
    <path d="M52.032024 29.098411l1.414213-1.414213 5.934783 5.934783-1.414213 1.414213z"/>
    <path d="M2 2v48.217391h68V2H2zm70-2v52.217391H0V0h72z"/>
    <path d="M22.826087 51.217391h2v10.652174h-2zM47.173913 51.217391h2v10.652174h-2z"/>
    <path d="M16.217391 62.869565v-2h39.565218v2zM71 41.086956v2H1v-2z"/>
    <g>
      <path d="M22.304348 19.782609v2c-3.8817 0-7.086957-2.376311-7.086957-5.565217s3.205257-5.565218 7.086957-5.565218c3.881699 0 7.086956 2.376312 7.086956 5.565218h-2c0-1.932534-2.202225-3.565218-5.086956-3.565218-2.884732 0-5.086957 1.632684-5.086957 3.565218 0 1.932533 2.202225 3.565217 5.086957 3.565217z"/>
      <path d="M22.304348 21.782609v-2c3.881699 0 7.086956 2.376311 7.086956 5.565217 0 3.188907-3.205257 5.565218-7.086956 5.565218-3.8817 0-7.086957-2.376311-7.086957-5.565218h2c0 1.932534 2.202225 3.565218 5.086957 3.565218 2.88473 0 5.086956-1.632684 5.086956-3.565218 0-1.932533-2.202225-3.565217-5.086956-3.565217zM23.304348 11.652174h-2V8.608696h2z"/>
      <path d="M23.304348 32.956522h-2v-3.043478h2z"/>
    </g>
  </g>
</svg>
