<?xml version="1.0" encoding="UTF-8"?>
<svg width="72px" height="62px" viewBox="0 0 72 62" version="1.1" xmlns="http://www.w3.org/2000/svg" xmlns:xlink="http://www.w3.org/1999/xlink">
    <!-- Generator: Sketch 51.2 (57519) - http://www.bohemiancoding.com/sketch -->
    <title>icon-extern-dark</title>
    <desc>Created with Sketch.</desc>
    <defs></defs>
    <g id="icon-extern-dark" stroke="none" stroke-width="1" fill="none" fill-rule="evenodd">
        <path d="M52.2427058,62 L19.7572942,62 C17.1347333,62 15,59.880375 15,57.276375 L15,4.723625 C15,2.119625 17.1347333,0 19.7572942,0 L52.2427058,0 C54.8652667,0 57,2.119625 57,4.723625 L57,57.276375 C57,59.880375 54.8652667,62 52.2427058,62 Z M19.7572942,1.9375 C18.2118565,1.9375 16.9513102,3.18525 16.9513102,4.723625 L16.9513102,57.276375 C16.9513102,58.810875 18.2079539,60.066375 19.7572942,60.066375 L52.2427058,60.066375 C53.7881435,60.066375 55.0486898,58.8225 55.0486898,57.276375 L55.0486898,4.723625 C55.0486898,3.189125 53.7920461,1.9375 52.2427058,1.9375 L19.7572942,1.9375 Z" id="Shape" fill="#000000" fill-rule="nonzero"></path>
        <rect id="Rectangle-path" fill="#000000" fill-rule="nonzero" x="15" y="8" width="42" height="2"></rect>
        <rect id="Rectangle-path" fill="#000000" fill-rule="nonzero" x="15" y="50" width="42" height="2"></rect>
        <path d="M35,59 C33.3471564,59 32,57.6536412 32,56.0017762 C32,54.3463588 33.3471564,53 35,53 C36.6528436,53 38,54.3463588 38,56.0017762 C38,57.6536412 36.6528436,59 35,59 Z M35,54.7761989 C34.3281991,54.7761989 33.7772512,55.3232682 33.7772512,56.0017762 C33.7772512,56.6802842 34.3281991,57.2238011 35,57.2238011 C35.6718009,57.2238011 36.2227488,56.6802842 36.2227488,56.0017762 C36.2227488,55.3232682 35.6718009,54.7761989 35,54.7761989 Z" id="Shape" fill="#000000" fill-rule="nonzero"></path>
        <path d="M41,5 C41,5.552 40.5830258,6 40.0774908,6 L34.9225092,6 C34.4132841,6 34,5.552 34,5 C34,4.448 34.4132841,4 34.9225092,4 L40.0774908,4 C40.5793358,4 41,4.448 41,5 Z" id="Shape" fill="#000000" fill-rule="nonzero"></path>
        <circle id="Oval" fill="#000000" fill-rule="nonzero" cx="32" cy="5" r="1"></circle>
        <path d="M50.9794816,22.3958428 L48.8898488,22.3958428 L46.8650108,22.3958428 L43.4187365,22.3958428 L43.4187365,12.9938664 C43.4187365,12.4452522 42.9692225,12 42.4063175,12 C41.8434125,12 41.3938985,12.4452522 41.3938985,12.9938664 L41.3938985,22.3958428 L32.5980022,22.3958428 L32.5980022,12.9938664 C32.5980022,12.4452522 32.1444384,12 31.5855832,12 C31.0267279,12 30.5731641,12.4452522 30.5731641,12.9938664 L30.5731641,22.3958428 L27.1268898,22.3958428 L25.1020518,22.3958428 L23.012419,22.3958428 C22.4535637,22.3958428 22,22.841095 22,23.3897092 C22,23.9383235 22.4535637,24.3835756 23.012419,24.3835756 L25.1061015,24.3835756 C25.1303996,30.1360745 27.912527,35.065652 31.8974082,37.4032258 C31.5977322,37.900159 31.3830994,38.4447978 31.3830994,39.0371422 C31.3830994,40.8420036 32.8774298,42.3089505 34.7159827,42.3089505 L35.9835313,42.3089505 L35.9835313,46.0061336 C35.9835313,46.5507724 36.437095,47 36.9959503,47 C37.5548056,47 38.0083693,46.5507724 38.0083693,46.0061336 L38.0083693,42.3089505 L39.2759179,42.3089505 C41.1185205,42.3089505 42.612851,40.8420036 42.612851,39.0371422 C42.612851,38.4447978 42.3941685,37.900159 42.0944924,37.4032258 C46.0834233,35.065652 48.8696004,30.1360745 48.8857991,24.3875511 L50.987581,24.3875511 C51.5464363,24.3875511 52,23.942299 52,23.3936847 C51.9959503,22.8450704 51.5383369,22.3958428 50.9794816,22.3958428 Z M40.588013,39.0371422 C40.588013,39.7487506 39.9967603,40.3212176 39.2759179,40.3212176 L34.7200324,40.3212176 C33.9991901,40.3212176 33.411987,39.7447751 33.411987,39.0371422 C33.411987,38.7389823 33.5577754,38.4686506 33.7521598,38.2420491 C34.7888769,38.5958655 35.862041,38.8582463 36.9959503,38.8582463 C38.137959,38.8582463 39.2192225,38.599841 40.2640389,38.2340981 C40.4543737,38.4567242 40.588013,38.7310313 40.588013,39.0371422 Z M36.9959503,36.8705134 C31.5734341,36.8705134 27.1633369,31.2770332 27.1309395,24.3835756 L46.8690605,24.3835756 C46.8366631,31.2770332 42.4184665,36.8705134 36.9959503,36.8705134 Z" id="Shape" fill="#000000" fill-rule="nonzero"></path>
    </g>
</svg>