<svg viewBox="0 0 72 64" xmlns="http://www.w3.org/2000/svg">
  <g fill="#222" fill-rule="nonzero">
    <path d="M35.652174 34.347826v22.26087H66v-22.26087H35.652174zm32.347826-2v26.26087H33.652174v-26.26087H68z"/>
    <path d="M49.826087 57.608696h2V63h-2z"/>
    <path d="M41.391304 64v-2H60.26087v2z"/>
    <g>
      <path d="M6 52.565217h20.565217v2H4V34.695652h2z"/>
      <path d="M20.466806 48.88102l1.414214-1.414214 6.098411 6.098411-6.098411 6.098411-1.414214-1.414213 4.684198-4.684198z"/>
    </g>
    <g>
      <path d="M36.347826 24.26087V2H6v22.26087h30.347826zM4 26.26087V0h34.347826v26.26087H4z"/>
      <path d="M20.173913 25.26087h2v5.391304h-2z"/>
      <path d="M30.608696 29.652174v2H11.73913v-2z"/>
    </g>
    <g>
      <path d="M45.434783 8.73913v-2H68v19.869566h-2V8.73913z"/>
      <path d="M51.533194 12.423328l-1.414213 1.414214-6.098412-6.098412 6.098412-6.098411 1.414213 1.414214-4.684197 4.684197z"/>
    </g>
    <path d="M34.652174 53.217391v-2H67v2zM5 20.869565v-2h32.347826v2z"/>
  </g>
</svg>
