<svg viewBox="0 0 72 60" xmlns="http://www.w3.org/2000/svg">
  <g fill="#222" fill-rule="nonzero">
    <path d="M14.695652 53.73913v-2h13.695652v2z"/>
    <path d="M51.217391 57.826087v2H27.391304V16.73913h33.956522v13.173914h-2V18.73913H29.391304v39.086957z"/>
    <path d="M60.347826 22.826087v2H28.391304v-2z"/>
    <path d="M2 42.608696h26.391304v2H0V0h58.304348v17.73913h-2V2H2z"/>
    <path d="M20.26087 52.73913h-2v-9.130434h2zM28.391304 50.695652v-2h22.826087v2zM51.217391 53.73913v-2H71v2zM51.217391 37v-2H71v2z"/>
    <path d="M52.217391 30.913044v26.913043H70V30.913043H52.217391zm19.782609-2v30.913043H50.217391V28.913043H72zM1 35.478261v-2h27.391304v2z"/>
  </g>
</svg>
