<svg viewBox="0 0 72 63" xmlns="http://www.w3.org/2000/svg">
  <g fill="#222" fill-rule="nonzero">
    <path d="M7 2v11h59V2H7zm61-2v15H5V0h63z"/>
    <path d="M13.956522 11.1c-2.012642 0-3.652174-1.607279-3.652174-3.6 0-1.992721 1.639532-3.6 3.652174-3.6s3.652174 1.607279 3.652174 3.6c0 1.992721-1.639532 3.6-3.652174 3.6zm0-2c.916868 0 1.652174-.72084 1.652174-1.6s-.735306-1.6-1.652174-1.6c-.916869 0-1.652174.72084-1.652174 1.6s.735305 1.6 1.652174 1.6zM61.695652 6.5v2h-2v-2h2zm-5 0v2h-2v-2h2zm-5 0v2h-2v-2h2zm-5 0v2h-2v-2h2zm-5 0v2h-2v-2h2zM7 22v11h59V22H7zm61-2v15H5V20h63z"/>
    <path d="M13.956522 31.1c-2.012642 0-3.652174-1.607279-3.652174-3.6 0-1.992721 1.639532-3.6 3.652174-3.6s3.652174 1.607279 3.652174 3.6c0 1.992721-1.639532 3.6-3.652174 3.6zm0-2c.916868 0 1.652174-.72084 1.652174-1.6s-.735306-1.6-1.652174-1.6c-.916869 0-1.652174.72084-1.652174 1.6s.735305 1.6 1.652174 1.6zM61.695652 26.5v2h-2v-2h2zm-5 0v2h-2v-2h2zm-5 0v2h-2v-2h2zm-5 0v2h-2v-2h2zm-5 0v2h-2v-2h2zM7 42v11h59V42H7zm61-2v15H5V40h63z"/>
    <path d="M13.956522 51.1c-2.012642 0-3.652174-1.607279-3.652174-3.6 0-1.992721 1.639532-3.6 3.652174-3.6s3.652174 1.607279 3.652174 3.6c0 1.992721-1.639532 3.6-3.652174 3.6zm0-2c.916868 0 1.652174-.72084 1.652174-1.6s-.735306-1.6-1.652174-1.6c-.916869 0-1.652174.72084-1.652174 1.6s.735305 1.6 1.652174 1.6zM61.695652 46.5v2h-2v-2h2zm-5 0v2h-2v-2h2zm-5 0v2h-2v-2h2zm-5 0v2h-2v-2h2zm-5 0v2h-2v-2h2z"/>
    <g>
      <path d="M56.666667 54h2v8h-2zM14 54h2v8h-2z"/>
    </g>
    <path d="M9 63v-2h56v2z"/>
    <g>
      <path d="M58.666667 41h-2v-7h2zM16 41h-2v-7h2z"/>
    </g>
    <g>
      <path d="M58.666667 21h-2v-7h2zM16 21h-2v-7h2z"/>
    </g>
  </g>
</svg>
